<svg width="350" height="234" viewBox="0 0 350 234" fill="none" xmlns="http://www.w3.org/2000/svg">
<g clip-path="url(#clip0_2455_90228)">
<path d="M280.688 85.132C275.485 58.6342 205.152 17.3161 140.537 51.6665C110.485 67.6436 117.168 82.2706 97.7001 107.492C86.0965 122.524 67.3197 135.994 65.9407 154.589C64.7465 170.64 72.0269 186.092 83.5337 194.719C109.413 214.119 153.522 221.857 183.259 176.465C212.996 131.072 294.101 153.474 280.688 85.132Z" fill="#F2F5FF"/>
<path d="M274.945 192.66C272.797 192.66 271.056 191.001 271.056 188.955C271.056 186.909 272.797 185.25 274.945 185.25C277.092 185.25 278.833 186.909 278.833 188.955C278.833 191.001 277.092 192.66 274.945 192.66Z" fill="#94ABFF"/>
<path d="M273.978 93.1375C272.554 93.1375 271.4 92.2118 271.4 91.0698C271.4 89.9278 272.554 89.002 273.978 89.002C275.401 89.002 276.555 89.9278 276.555 91.0698C276.555 92.2118 275.401 93.1375 273.978 93.1375Z" fill="#94ABFF"/>
<path fill-rule="evenodd" clip-rule="evenodd" d="M244.845 80.8498V60.9001C244.845 49.8819 235.939 40.9501 224.952 40.9501H125.487C114.5 40.9501 105.594 49.8819 105.594 60.9001V110.774" fill="white"/>
<path d="M244.845 80.8498V60.9001C244.845 49.8819 235.939 40.9501 224.952 40.9501H125.487C114.501 40.9501 105.594 49.8819 105.594 60.9001V110.774" stroke="#94ABFF" stroke-width="1.60611"/>
<path fill-rule="evenodd" clip-rule="evenodd" d="M105.594 84.3384H169.898C171.535 84.3386 173.147 83.9335 174.591 83.1592C176.035 82.3848 177.265 81.2651 178.174 79.8994L192.129 58.8624C193.039 57.4906 194.274 56.3662 195.723 55.5899C197.173 54.8136 198.791 54.4095 200.434 54.4137H244.845C255.832 54.4137 264.739 63.3454 264.739 74.3633V174.112C264.739 185.131 255.832 194.063 244.845 194.063H105.594C94.6079 194.063 85.7012 185.131 85.7012 174.112V104.288C85.7012 93.2701 94.6079 84.3384 105.594 84.3384Z" fill="white" stroke="#94ABFF" stroke-width="1.60611"/>
<path d="M73.4379 174.33H73.5052C73.9046 180.003 78.1112 180.09 78.1112 180.09C78.1112 180.09 73.4726 180.181 73.4726 186.736C73.4726 180.181 68.8335 180.09 68.8335 180.09C68.8335 180.09 73.0385 180.003 73.4379 174.33ZM295.754 113.22H295.824C296.239 119.211 300.611 119.303 300.611 119.303C300.611 119.303 295.79 119.399 295.79 126.32C295.79 119.399 290.97 119.303 290.97 119.303C290.97 119.303 295.339 119.211 295.754 113.22Z" fill="#94ABFF"/>
<path fill-rule="evenodd" clip-rule="evenodd" d="M123.675 173.946V175.494H125.217C125.527 175.495 125.825 175.62 126.044 175.84C126.264 176.06 126.388 176.359 126.389 176.67C126.388 176.982 126.264 177.28 126.044 177.5C125.825 177.72 125.527 177.845 125.217 177.846H123.675V179.394C123.674 179.705 123.55 180.004 123.331 180.224C123.111 180.444 122.814 180.569 122.503 180.57C122.192 180.569 121.895 180.444 121.676 180.224C121.456 180.004 121.332 179.705 121.331 179.394V177.853H119.783C119.473 177.851 119.175 177.727 118.956 177.507C118.736 177.286 118.612 176.988 118.611 176.676C118.612 176.365 118.736 176.067 118.956 175.846C119.175 175.626 119.473 175.502 119.783 175.5H121.325V173.946C121.326 173.634 121.451 173.335 121.672 173.114C121.893 172.894 122.191 172.77 122.503 172.77C122.814 172.772 123.111 172.896 123.331 173.116C123.55 173.337 123.674 173.635 123.675 173.946ZM110.787 163.107V165.273H113.023C113.956 165.273 114.722 166.016 114.722 166.92C114.722 167.824 113.956 168.567 113.023 168.567H110.787V170.733C110.787 171.637 110.021 172.38 109.088 172.38C108.155 172.38 107.388 171.637 107.388 170.733V168.576H105.144C104.211 168.576 103.444 167.833 103.444 166.929C103.444 166.025 104.211 165.282 105.144 165.282H107.379V163.107C107.379 162.203 108.146 161.46 109.088 161.46C110.021 161.46 110.787 162.203 110.787 163.107Z" fill="#94ABFF"/>
<path fill-rule="evenodd" clip-rule="evenodd" d="M188.105 168.089H163.061C152.687 168.089 144.278 159.655 144.278 149.252V124.137C144.278 113.733 152.687 105.3 163.061 105.3H188.105C198.478 105.3 206.888 113.733 206.888 124.137V149.252C206.888 159.655 198.478 168.089 188.105 168.089Z" fill="#4A72FF" stroke="#4A72FF" stroke-width="9.38739" stroke-linecap="round" stroke-linejoin="round"/>
<path fill-rule="evenodd" clip-rule="evenodd" d="M175.583 148.241C175.509 148.241 175.435 148.256 175.366 148.285C175.297 148.313 175.235 148.356 175.182 148.409C175.13 148.462 175.089 148.525 175.061 148.594C175.033 148.664 175.019 148.738 175.02 148.812C175.019 148.926 175.053 149.037 175.116 149.131C175.179 149.225 175.268 149.298 175.373 149.342C175.477 149.385 175.592 149.396 175.703 149.373C175.814 149.351 175.916 149.295 175.995 149.215C176.075 149.134 176.128 149.032 176.15 148.92C176.171 148.809 176.159 148.694 176.115 148.589C176.07 148.485 175.996 148.396 175.902 148.334C175.807 148.272 175.696 148.24 175.583 148.241Z" fill="white"/>
<path d="M175.583 148.241C175.509 148.241 175.435 148.256 175.366 148.285C175.297 148.313 175.235 148.356 175.182 148.409C175.13 148.462 175.089 148.525 175.061 148.594C175.033 148.664 175.019 148.738 175.02 148.812C175.019 148.926 175.053 149.037 175.116 149.131C175.179 149.225 175.268 149.298 175.373 149.342C175.477 149.385 175.592 149.396 175.703 149.373C175.814 149.351 175.916 149.295 175.995 149.215C176.075 149.134 176.128 149.032 176.15 148.92C176.171 148.809 176.159 148.694 176.115 148.589C176.07 148.485 175.996 148.396 175.902 148.334C175.807 148.272 175.696 148.24 175.583 148.241" stroke="white" stroke-width="9.38739" stroke-linecap="round" stroke-linejoin="round"/>
<path d="M175.583 135.528V124.006" stroke="white" stroke-width="9.38739" stroke-linecap="round" stroke-linejoin="round"/>
<path d="M221.472 84.2401C219.432 84.2401 217.778 82.494 217.778 80.3401C217.778 78.1862 219.432 76.4401 221.472 76.4401C223.512 76.4401 225.167 78.1862 225.167 80.3401C225.167 82.494 223.512 84.2401 221.472 84.2401Z" fill="#94ABFF"/>
<path d="M99.2388 62.1098C99.5988 63.4571 98.8015 64.842 97.458 65.203C96.1144 65.564 94.7335 64.7645 94.3735 63.4171C94.0135 62.0698 94.8108 60.6849 96.1543 60.3239C97.4978 59.9628 98.8788 60.7624 99.2388 62.1098Z" fill="#94ABFF"/>
<path d="M251.86 46.5185C250.863 46.5185 250.055 45.7085 250.055 44.7093C250.055 43.7101 250.863 42.9001 251.86 42.9001C252.856 42.9001 253.664 43.7101 253.664 44.7093C253.664 45.7085 252.856 46.5185 251.86 46.5185Z" fill="#94ABFF"/>
</g>
<defs>
<clipPath id="clip0_2455_90228">
<rect width="350" height="234" fill="white"/>
</clipPath>
</defs>
</svg>
